# PVP Race Track - Oval Circuit
# Panda3D compatible OBJ
# 925 vertices

mtllib race_track.mtl
o RaceTrack

v -40.0000 0.0000 -50.0000
v -39.5075 0.0000 -56.2574
v -38.0423 0.0000 -62.3607
v -35.6403 0.0000 -68.1596
v -32.3607 0.0000 -73.5114
v -28.2843 0.0000 -78.2843
v -23.5114 0.0000 -82.3607
v -18.1596 0.0000 -85.6403
v -12.3607 0.0000 -88.0423
v -6.2574 0.0000 -89.5075
v -0.0000 0.0000 -90.0000
v 6.2574 0.0000 -89.5075
v 12.3607 0.0000 -88.0423
v 18.1596 0.0000 -85.6403
v 23.5114 0.0000 -82.3607
v 28.2843 0.0000 -78.2843
v 32.3607 0.0000 -73.5114
v 35.6403 0.0000 -68.1596
v 38.0423 0.0000 -62.3607
v 39.5075 0.0000 -56.2574
v 40.0000 0.0000 -50.0000
v 40.0000 0.0000 -50.0000
v 40.0000 0.0000 -45.0000
v 40.0000 0.0000 -40.0000
v 40.0000 0.0000 -35.0000
v 40.0000 0.0000 -30.0000
v 40.0000 0.0000 -25.0000
v 40.0000 0.0000 -20.0000
v 40.0000 0.0000 -15.0000
v 40.0000 0.0000 -10.0000
v 40.0000 0.0000 -5.0000
v 40.0000 0.0000 0.0000
v 40.0000 0.0000 5.0000
v 40.0000 0.0000 10.0000
v 40.0000 0.0000 15.0000
v 40.0000 0.0000 20.0000
v 40.0000 0.0000 25.0000
v 40.0000 0.0000 30.0000
v 40.0000 0.0000 35.0000
v 40.0000 0.0000 40.0000
v 40.0000 0.0000 45.0000
v 40.0000 0.0000 50.0000
v 40.0000 0.0000 50.0000
v 39.5075 0.0000 56.2574
v 38.0423 0.0000 62.3607
v 35.6403 0.0000 68.1596
v 32.3607 0.0000 73.5114
v 28.2843 0.0000 78.2843
v 23.5114 0.0000 82.3607
v 18.1596 0.0000 85.6403
v 12.3607 0.0000 88.0423
v 6.2574 0.0000 89.5075
v 0.0000 0.0000 90.0000
v -6.2574 0.0000 89.5075
v -12.3607 0.0000 88.0423
v -18.1596 0.0000 85.6403
v -23.5114 0.0000 82.3607
v -28.2843 0.0000 78.2843
v -32.3607 0.0000 73.5114
v -35.6403 0.0000 68.1596
v -38.0423 0.0000 62.3607
v -39.5075 0.0000 56.2574
v -40.0000 0.0000 50.0000
v -40.0000 0.0000 50.0000
v -40.0000 0.0000 45.0000
v -40.0000 0.0000 40.0000
v -40.0000 0.0000 35.0000
v -40.0000 0.0000 30.0000
v -40.0000 0.0000 25.0000
v -40.0000 0.0000 20.0000
v -40.0000 0.0000 15.0000
v -40.0000 0.0000 10.0000
v -40.0000 0.0000 5.0000
v -40.0000 0.0000 0.0000
v -40.0000 0.0000 -5.0000
v -40.0000 0.0000 -10.0000
v -40.0000 0.0000 -15.0000
v -40.0000 0.0000 -20.0000
v -40.0000 0.0000 -25.0000
v -40.0000 0.0000 -30.0000
v -40.0000 0.0000 -35.0000
v -40.0000 0.0000 -40.0000
v -40.0000 0.0000 -45.0000
v -40.0000 0.0000 -50.0000
v -52.0000 0.0000 -50.0000
v -51.3598 0.0000 -58.1346
v -49.4549 0.0000 -66.0689
v -46.3323 0.0000 -73.6075
v -42.0689 0.0000 -80.5648
v -36.7696 0.0000 -86.7696
v -30.5648 0.0000 -92.0689
v -23.6075 0.0000 -96.3323
v -16.0689 0.0000 -99.4549
v -8.1346 0.0000 -101.3598
v -0.0000 0.0000 -102.0000
v 8.1346 0.0000 -101.3598
v 16.0689 0.0000 -99.4549
v 23.6075 0.0000 -96.3323
v 30.5648 0.0000 -92.0689
v 36.7696 0.0000 -86.7696
v 42.0689 0.0000 -80.5648
v 46.3323 0.0000 -73.6075
v 49.4549 0.0000 -66.0689
v 51.3598 0.0000 -58.1346
v 52.0000 0.0000 -50.0000
v 52.0000 0.0000 -50.0000
v 52.0000 0.0000 -45.0000
v 52.0000 0.0000 -40.0000
v 52.0000 0.0000 -35.0000
v 52.0000 0.0000 -30.0000
v 52.0000 0.0000 -25.0000
v 52.0000 0.0000 -20.0000
v 52.0000 0.0000 -15.0000
v 52.0000 0.0000 -10.0000
v 52.0000 0.0000 -5.0000
v 52.0000 0.0000 0.0000
v 52.0000 0.0000 5.0000
v 52.0000 0.0000 10.0000
v 52.0000 0.0000 15.0000
v 52.0000 0.0000 20.0000
v 52.0000 0.0000 25.0000
v 52.0000 0.0000 30.0000
v 52.0000 0.0000 35.0000
v 52.0000 0.0000 40.0000
v 52.0000 0.0000 45.0000
v 52.0000 0.0000 50.0000
v 52.0000 0.0000 50.0000
v 51.3598 0.0000 58.1346
v 49.4549 0.0000 66.0689
v 46.3323 0.0000 73.6075
v 42.0689 0.0000 80.5648
v 36.7696 0.0000 86.7696
v 30.5648 0.0000 92.0689
v 23.6075 0.0000 96.3323
v 16.0689 0.0000 99.4549
v 8.1346 0.0000 101.3598
v 0.0000 0.0000 102.0000
v -8.1346 0.0000 101.3598
v -16.0689 0.0000 99.4549
v -23.6075 0.0000 96.3323
v -30.5648 0.0000 92.0689
v -36.7696 0.0000 86.7696
v -42.0689 0.0000 80.5648
v -46.3323 0.0000 73.6075
v -49.4549 0.0000 66.0689
v -51.3598 0.0000 58.1346
v -52.0000 0.0000 50.0000
v -52.0000 0.0000 50.0000
v -52.0000 0.0000 45.0000
v -52.0000 0.0000 40.0000
v -52.0000 0.0000 35.0000
v -52.0000 0.0000 30.0000
v -52.0000 0.0000 25.0000
v -52.0000 0.0000 20.0000
v -52.0000 0.0000 15.0000
v -52.0000 0.0000 10.0000
v -52.0000 0.0000 5.0000
v -52.0000 0.0000 0.0000
v -52.0000 0.0000 -5.0000
v -52.0000 0.0000 -10.0000
v -52.0000 0.0000 -15.0000
v -52.0000 0.0000 -20.0000
v -52.0000 0.0000 -25.0000
v -52.0000 0.0000 -30.0000
v -52.0000 0.0000 -35.0000
v -52.0000 0.0000 -40.0000
v -52.0000 0.0000 -45.0000
v -52.0000 0.0000 -50.0000
v -40.0000 0.2000 -50.0000
v -39.5075 0.2000 -56.2574
v -38.0423 0.2000 -62.3607
v -35.6403 0.2000 -68.1596
v -32.3607 0.2000 -73.5114
v -28.2843 0.2000 -78.2843
v -23.5114 0.2000 -82.3607
v -18.1596 0.2000 -85.6403
v -12.3607 0.2000 -88.0423
v -6.2574 0.2000 -89.5075
v -0.0000 0.2000 -90.0000
v 6.2574 0.2000 -89.5075
v 12.3607 0.2000 -88.0423
v 18.1596 0.2000 -85.6403
v 23.5114 0.2000 -82.3607
v 28.2843 0.2000 -78.2843
v 32.3607 0.2000 -73.5114
v 35.6403 0.2000 -68.1596
v 38.0423 0.2000 -62.3607
v 39.5075 0.2000 -56.2574
v 40.0000 0.2000 -50.0000
v 40.0000 0.2000 -50.0000
v 40.0000 0.2000 -45.0000
v 40.0000 0.2000 -40.0000
v 40.0000 0.2000 -35.0000
v 40.0000 0.2000 -30.0000
v 40.0000 0.2000 -25.0000
v 40.0000 0.2000 -20.0000
v 40.0000 0.2000 -15.0000
v 40.0000 0.2000 -10.0000
v 40.0000 0.2000 -5.0000
v 40.0000 0.2000 0.0000
v 40.0000 0.2000 5.0000
v 40.0000 0.2000 10.0000
v 40.0000 0.2000 15.0000
v 40.0000 0.2000 20.0000
v 40.0000 0.2000 25.0000
v 40.0000 0.2000 30.0000
v 40.0000 0.2000 35.0000
v 40.0000 0.2000 40.0000
v 40.0000 0.2000 45.0000
v 40.0000 0.2000 50.0000
v 40.0000 0.2000 50.0000
v 39.5075 0.2000 56.2574
v 38.0423 0.2000 62.3607
v 35.6403 0.2000 68.1596
v 32.3607 0.2000 73.5114
v 28.2843 0.2000 78.2843
v 23.5114 0.2000 82.3607
v 18.1596 0.2000 85.6403
v 12.3607 0.2000 88.0423
v 6.2574 0.2000 89.5075
v 0.0000 0.2000 90.0000
v -6.2574 0.2000 89.5075
v -12.3607 0.2000 88.0423
v -18.1596 0.2000 85.6403
v -23.5114 0.2000 82.3607
v -28.2843 0.2000 78.2843
v -32.3607 0.2000 73.5114
v -35.6403 0.2000 68.1596
v -38.0423 0.2000 62.3607
v -39.5075 0.2000 56.2574
v -40.0000 0.2000 50.0000
v -40.0000 0.2000 50.0000
v -40.0000 0.2000 45.0000
v -40.0000 0.2000 40.0000
v -40.0000 0.2000 35.0000
v -40.0000 0.2000 30.0000
v -40.0000 0.2000 25.0000
v -40.0000 0.2000 20.0000
v -40.0000 0.2000 15.0000
v -40.0000 0.2000 10.0000
v -40.0000 0.2000 5.0000
v -40.0000 0.2000 0.0000
v -40.0000 0.2000 -5.0000
v -40.0000 0.2000 -10.0000
v -40.0000 0.2000 -15.0000
v -40.0000 0.2000 -20.0000
v -40.0000 0.2000 -25.0000
v -40.0000 0.2000 -30.0000
v -40.0000 0.2000 -35.0000
v -40.0000 0.2000 -40.0000
v -40.0000 0.2000 -45.0000
v -40.0000 0.2000 -50.0000
v -52.0000 0.2000 -50.0000
v -51.3598 0.2000 -58.1346
v -49.4549 0.2000 -66.0689
v -46.3323 0.2000 -73.6075
v -42.0689 0.2000 -80.5648
v -36.7696 0.2000 -86.7696
v -30.5648 0.2000 -92.0689
v -23.6075 0.2000 -96.3323
v -16.0689 0.2000 -99.4549
v -8.1346 0.2000 -101.3598
v -0.0000 0.2000 -102.0000
v 8.1346 0.2000 -101.3598
v 16.0689 0.2000 -99.4549
v 23.6075 0.2000 -96.3323
v 30.5648 0.2000 -92.0689
v 36.7696 0.2000 -86.7696
v 42.0689 0.2000 -80.5648
v 46.3323 0.2000 -73.6075
v 49.4549 0.2000 -66.0689
v 51.3598 0.2000 -58.1346
v 52.0000 0.2000 -50.0000
v 52.0000 0.2000 -50.0000
v 52.0000 0.2000 -45.0000
v 52.0000 0.2000 -40.0000
v 52.0000 0.2000 -35.0000
v 52.0000 0.2000 -30.0000
v 52.0000 0.2000 -25.0000
v 52.0000 0.2000 -20.0000
v 52.0000 0.2000 -15.0000
v 52.0000 0.2000 -10.0000
v 52.0000 0.2000 -5.0000
v 52.0000 0.2000 0.0000
v 52.0000 0.2000 5.0000
v 52.0000 0.2000 10.0000
v 52.0000 0.2000 15.0000
v 52.0000 0.2000 20.0000
v 52.0000 0.2000 25.0000
v 52.0000 0.2000 30.0000
v 52.0000 0.2000 35.0000
v 52.0000 0.2000 40.0000
v 52.0000 0.2000 45.0000
v 52.0000 0.2000 50.0000
v 52.0000 0.2000 50.0000
v 51.3598 0.2000 58.1346
v 49.4549 0.2000 66.0689
v 46.3323 0.2000 73.6075
v 42.0689 0.2000 80.5648
v 36.7696 0.2000 86.7696
v 30.5648 0.2000 92.0689
v 23.6075 0.2000 96.3323
v 16.0689 0.2000 99.4549
v 8.1346 0.2000 101.3598
v 0.0000 0.2000 102.0000
v -8.1346 0.2000 101.3598
v -16.0689 0.2000 99.4549
v -23.6075 0.2000 96.3323
v -30.5648 0.2000 92.0689
v -36.7696 0.2000 86.7696
v -42.0689 0.2000 80.5648
v -46.3323 0.2000 73.6075
v -49.4549 0.2000 66.0689
v -51.3598 0.2000 58.1346
v -52.0000 0.2000 50.0000
v -52.0000 0.2000 50.0000
v -52.0000 0.2000 45.0000
v -52.0000 0.2000 40.0000
v -52.0000 0.2000 35.0000
v -52.0000 0.2000 30.0000
v -52.0000 0.2000 25.0000
v -52.0000 0.2000 20.0000
v -52.0000 0.2000 15.0000
v -52.0000 0.2000 10.0000
v -52.0000 0.2000 5.0000
v -52.0000 0.2000 0.0000
v -52.0000 0.2000 -5.0000
v -52.0000 0.2000 -10.0000
v -52.0000 0.2000 -15.0000
v -52.0000 0.2000 -20.0000
v -52.0000 0.2000 -25.0000
v -52.0000 0.2000 -30.0000
v -52.0000 0.2000 -35.0000
v -52.0000 0.2000 -40.0000
v -52.0000 0.2000 -45.0000
v -52.0000 0.2000 -50.0000
v -40.0000 2.5000 -50.0000
v -39.5075 2.5000 -56.2574
v -38.0423 2.5000 -62.3607
v -35.6403 2.5000 -68.1596
v -32.3607 2.5000 -73.5114
v -28.2843 2.5000 -78.2843
v -23.5114 2.5000 -82.3607
v -18.1596 2.5000 -85.6403
v -12.3607 2.5000 -88.0423
v -6.2574 2.5000 -89.5075
v -0.0000 2.5000 -90.0000
v 6.2574 2.5000 -89.5075
v 12.3607 2.5000 -88.0423
v 18.1596 2.5000 -85.6403
v 23.5114 2.5000 -82.3607
v 28.2843 2.5000 -78.2843
v 32.3607 2.5000 -73.5114
v 35.6403 2.5000 -68.1596
v 38.0423 2.5000 -62.3607
v 39.5075 2.5000 -56.2574
v 40.0000 2.5000 -50.0000
v 40.0000 2.5000 -50.0000
v 40.0000 2.5000 -45.0000
v 40.0000 2.5000 -40.0000
v 40.0000 2.5000 -35.0000
v 40.0000 2.5000 -30.0000
v 40.0000 2.5000 -25.0000
v 40.0000 2.5000 -20.0000
v 40.0000 2.5000 -15.0000
v 40.0000 2.5000 -10.0000
v 40.0000 2.5000 -5.0000
v 40.0000 2.5000 0.0000
v 40.0000 2.5000 5.0000
v 40.0000 2.5000 10.0000
v 40.0000 2.5000 15.0000
v 40.0000 2.5000 20.0000
v 40.0000 2.5000 25.0000
v 40.0000 2.5000 30.0000
v 40.0000 2.5000 35.0000
v 40.0000 2.5000 40.0000
v 40.0000 2.5000 45.0000
v 40.0000 2.5000 50.0000
v 40.0000 2.5000 50.0000
v 39.5075 2.5000 56.2574
v 38.0423 2.5000 62.3607
v 35.6403 2.5000 68.1596
v 32.3607 2.5000 73.5114
v 28.2843 2.5000 78.2843
v 23.5114 2.5000 82.3607
v 18.1596 2.5000 85.6403
v 12.3607 2.5000 88.0423
v 6.2574 2.5000 89.5075
v 0.0000 2.5000 90.0000
v -6.2574 2.5000 89.5075
v -12.3607 2.5000 88.0423
v -18.1596 2.5000 85.6403
v -23.5114 2.5000 82.3607
v -28.2843 2.5000 78.2843
v -32.3607 2.5000 73.5114
v -35.6403 2.5000 68.1596
v -38.0423 2.5000 62.3607
v -39.5075 2.5000 56.2574
v -40.0000 2.5000 50.0000
v -40.0000 2.5000 50.0000
v -40.0000 2.5000 45.0000
v -40.0000 2.5000 40.0000
v -40.0000 2.5000 35.0000
v -40.0000 2.5000 30.0000
v -40.0000 2.5000 25.0000
v -40.0000 2.5000 20.0000
v -40.0000 2.5000 15.0000
v -40.0000 2.5000 10.0000
v -40.0000 2.5000 5.0000
v -40.0000 2.5000 0.0000
v -40.0000 2.5000 -5.0000
v -40.0000 2.5000 -10.0000
v -40.0000 2.5000 -15.0000
v -40.0000 2.5000 -20.0000
v -40.0000 2.5000 -25.0000
v -40.0000 2.5000 -30.0000
v -40.0000 2.5000 -35.0000
v -40.0000 2.5000 -40.0000
v -40.0000 2.5000 -45.0000
v -40.0000 2.5000 -50.0000
v -52.0000 2.5000 -50.0000
v -51.3598 2.5000 -58.1346
v -49.4549 2.5000 -66.0689
v -46.3323 2.5000 -73.6075
v -42.0689 2.5000 -80.5648
v -36.7696 2.5000 -86.7696
v -30.5648 2.5000 -92.0689
v -23.6075 2.5000 -96.3323
v -16.0689 2.5000 -99.4549
v -8.1346 2.5000 -101.3598
v -0.0000 2.5000 -102.0000
v 8.1346 2.5000 -101.3598
v 16.0689 2.5000 -99.4549
v 23.6075 2.5000 -96.3323
v 30.5648 2.5000 -92.0689
v 36.7696 2.5000 -86.7696
v 42.0689 2.5000 -80.5648
v 46.3323 2.5000 -73.6075
v 49.4549 2.5000 -66.0689
v 51.3598 2.5000 -58.1346
v 52.0000 2.5000 -50.0000
v 52.0000 2.5000 -50.0000
v 52.0000 2.5000 -45.0000
v 52.0000 2.5000 -40.0000
v 52.0000 2.5000 -35.0000
v 52.0000 2.5000 -30.0000
v 52.0000 2.5000 -25.0000
v 52.0000 2.5000 -20.0000
v 52.0000 2.5000 -15.0000
v 52.0000 2.5000 -10.0000
v 52.0000 2.5000 -5.0000
v 52.0000 2.5000 0.0000
v 52.0000 2.5000 5.0000
v 52.0000 2.5000 10.0000
v 52.0000 2.5000 15.0000
v 52.0000 2.5000 20.0000
v 52.0000 2.5000 25.0000
v 52.0000 2.5000 30.0000
v 52.0000 2.5000 35.0000
v 52.0000 2.5000 40.0000
v 52.0000 2.5000 45.0000
v 52.0000 2.5000 50.0000
v 52.0000 2.5000 50.0000
v 51.3598 2.5000 58.1346
v 49.4549 2.5000 66.0689
v 46.3323 2.5000 73.6075
v 42.0689 2.5000 80.5648
v 36.7696 2.5000 86.7696
v 30.5648 2.5000 92.0689
v 23.6075 2.5000 96.3323
v 16.0689 2.5000 99.4549
v 8.1346 2.5000 101.3598
v 0.0000 2.5000 102.0000
v -8.1346 2.5000 101.3598
v -16.0689 2.5000 99.4549
v -23.6075 2.5000 96.3323
v -30.5648 2.5000 92.0689
v -36.7696 2.5000 86.7696
v -42.0689 2.5000 80.5648
v -46.3323 2.5000 73.6075
v -49.4549 2.5000 66.0689
v -51.3598 2.5000 58.1346
v -52.0000 2.5000 50.0000
v -52.0000 2.5000 50.0000
v -52.0000 2.5000 45.0000
v -52.0000 2.5000 40.0000
v -52.0000 2.5000 35.0000
v -52.0000 2.5000 30.0000
v -52.0000 2.5000 25.0000
v -52.0000 2.5000 20.0000
v -52.0000 2.5000 15.0000
v -52.0000 2.5000 10.0000
v -52.0000 2.5000 5.0000
v -52.0000 2.5000 0.0000
v -52.0000 2.5000 -5.0000
v -52.0000 2.5000 -10.0000
v -52.0000 2.5000 -15.0000
v -52.0000 2.5000 -20.0000
v -52.0000 2.5000 -25.0000
v -52.0000 2.5000 -30.0000
v -52.0000 2.5000 -35.0000
v -52.0000 2.5000 -40.0000
v -52.0000 2.5000 -45.0000
v -52.0000 2.5000 -50.0000
v -46.3987 0.0200 -50.0314
v -45.6013 0.0200 -49.9686
v -45.0350 0.0200 -57.1646
v -45.8324 0.0200 -57.2274
v -32.7867 0.0200 -82.8310
v -32.2672 0.0200 -82.2228
v -26.7784 0.0200 -86.9107
v -27.2979 0.0200 -87.5189
v 0.0314 0.0200 -96.3987
v -0.0314 0.0200 -95.6013
v 7.1646 0.0200 -95.0350
v 7.2274 0.0200 -95.8324
v 32.8310 0.0200 -82.7867
v 32.2228 0.0200 -82.2672
v 36.9107 0.0200 -76.7784
v 37.5189 0.0200 -77.2979
v 46.0000 0.0200 -50.0000
v 46.0000 0.0200 -50.0000
v 46.0000 0.0200 -50.0000
v 46.0000 0.0200 -50.0000
v 46.3999 0.0200 -30.0000
v 45.6001 0.0200 -30.0000
v 45.6001 0.0200 -25.0000
v 46.3999 0.0200 -25.0000
v 46.3999 0.0200 -5.0000
v 45.6001 0.0200 -5.0000
v 45.6001 0.0200 0.0000
v 46.3999 0.0200 0.0000
v 46.3999 0.0200 20.0000
v 45.6001 0.0200 20.0000
v 45.6001 0.0200 25.0000
v 46.3999 0.0200 25.0000
v 46.3999 0.0200 45.0000
v 45.6001 0.0200 45.0000
v 45.6001 0.0200 50.0000
v 46.3999 0.0200 50.0000
v 41.3273 0.0200 71.0925
v 40.6453 0.0200 70.6746
v 36.8738 0.0200 76.8292
v 37.5558 0.0200 77.2471
v 14.3081 0.0200 94.1375
v 14.1214 0.0200 93.3597
v 7.1026 0.0200 95.0448
v 7.2894 0.0200 95.8226
v -21.0925 0.0200 91.3273
v -20.6746 0.0200 90.6453
v -26.8292 0.0200 86.8738
v -27.2471 0.0200 87.5558
v -44.1375 0.0200 64.3081
v -43.3597 0.0200 64.1214
v -45.0448 0.0200 57.1026
v -45.8226 0.0200 57.2894
v -46.3999 0.0200 40.0000
v -45.6001 0.0200 40.0000
v -45.6001 0.0200 35.0000
v -46.3999 0.0200 35.0000
v -46.3999 0.0200 15.0000
v -45.6001 0.0200 15.0000
v -45.6001 0.0200 10.0000
v -46.3999 0.0200 10.0000
v -46.3999 0.0200 -10.0000
v -45.6001 0.0200 -10.0000
v -45.6001 0.0200 -15.0000
v -46.3999 0.0200 -15.0000
v -46.3999 0.0200 -35.0000
v -45.6001 0.0200 -35.0000
v -45.6001 0.0200 -40.0000
v -46.3999 0.0200 -40.0000
v 40.0000 0.0300 -3.0000
v 52.0000 0.0300 -3.0000
v 52.0000 0.0300 3.0000
v 40.0000 0.0300 3.0000
v 0.0000 -0.0500 0.0000
v 38.0000 -0.0500 0.0000
v 37.5322 -0.0500 13.7662
v 36.1401 -0.0500 27.1935
v 33.8582 -0.0500 39.9512
v 30.7426 -0.0500 51.7251
v 26.8701 -0.0500 62.2254
v 22.3358 -0.0500 71.1935
v 17.2516 -0.0500 78.4086
v 11.7426 -0.0500 83.6930
v 5.9445 -0.0500 86.9166
v 0.0000 -0.0500 88.0000
v -5.9445 -0.0500 86.9166
v -11.7426 -0.0500 83.6930
v -17.2516 -0.0500 78.4086
v -22.3358 -0.0500 71.1935
v -26.8701 -0.0500 62.2254
v -30.7426 -0.0500 51.7251
v -33.8582 -0.0500 39.9512
v -36.1401 -0.0500 27.1935
v -37.5322 -0.0500 13.7662
v -38.0000 -0.0500 0.0000
v -37.5322 -0.0500 -13.7662
v -36.1401 -0.0500 -27.1935
v -33.8582 -0.0500 -39.9512
v -30.7426 -0.0500 -51.7251
v -26.8701 -0.0500 -62.2254
v -22.3358 -0.0500 -71.1935
v -17.2516 -0.0500 -78.4086
v -11.7426 -0.0500 -83.6930
v -5.9445 -0.0500 -86.9166
v -0.0000 -0.0500 -88.0000
v 5.9445 -0.0500 -86.9166
v 11.7426 -0.0500 -83.6930
v 17.2516 -0.0500 -78.4086
v 22.3358 -0.0500 -71.1935
v 26.8701 -0.0500 -62.2254
v 30.7426 -0.0500 -51.7251
v 33.8582 -0.0500 -39.9512
v 36.1401 -0.0500 -27.1935
v 37.5322 -0.0500 -13.7662
v -200.0000 -0.1000 -200.0000
v 200.0000 -0.1000 -200.0000
v 200.0000 -0.1000 200.0000
v -200.0000 -0.1000 200.0000
v -54.0000 0.0000 -30.0000
v -56.0000 0.0000 -30.0000
v -56.0000 0.0000 30.0000
v -54.0000 0.0000 30.0000
v -54.0000 1.0000 -30.0000
v -56.0000 1.0000 -30.0000
v -56.0000 1.0000 30.0000
v -54.0000 1.0000 30.0000
v -55.5000 1.2000 -30.0000
v -57.5000 1.2000 -30.0000
v -57.5000 1.2000 30.0000
v -55.5000 1.2000 30.0000
v -55.5000 2.2000 -30.0000
v -57.5000 2.2000 -30.0000
v -57.5000 2.2000 30.0000
v -55.5000 2.2000 30.0000
v -57.0000 2.4000 -30.0000
v -59.0000 2.4000 -30.0000
v -59.0000 2.4000 30.0000
v -57.0000 2.4000 30.0000
v -57.0000 3.4000 -30.0000
v -59.0000 3.4000 -30.0000
v -59.0000 3.4000 30.0000
v -57.0000 3.4000 30.0000
v -58.5000 3.6000 -30.0000
v -60.5000 3.6000 -30.0000
v -60.5000 3.6000 30.0000
v -58.5000 3.6000 30.0000
v -58.5000 4.6000 -30.0000
v -60.5000 4.6000 -30.0000
v -60.5000 4.6000 30.0000
v -58.5000 4.6000 30.0000
v 40.1000 0.0100 -40.0000
v 40.1000 0.0100 -34.0000
v 46.0000 0.0100 -34.0000
v 46.0000 0.0100 -40.0000
v 40.1000 0.0100 -34.0000
v 40.1000 0.0100 -28.0000
v 46.0000 0.0100 -28.0000
v 46.0000 0.0100 -34.0000
v 40.1000 0.0100 -28.0000
v 40.1000 0.0100 -22.0000
v 46.0000 0.0100 -22.0000
v 46.0000 0.0100 -28.0000
v 40.1000 0.0100 -22.0000
v 40.1000 0.0100 -16.0000
v 46.0000 0.0100 -16.0000
v 46.0000 0.0100 -22.0000
v 40.1000 0.0100 -16.0000
v 40.1000 0.0100 -10.0000
v 46.0000 0.0100 -10.0000
v 46.0000 0.0100 -16.0000
v 40.1000 0.0100 -10.0000
v 40.1000 0.0100 -4.0000
v 46.0000 0.0100 -4.0000
v 46.0000 0.0100 -10.0000
v 40.1000 0.0100 -4.0000
v 40.1000 0.0100 2.0000
v 46.0000 0.0100 2.0000
v 46.0000 0.0100 -4.0000
v 40.1000 0.0100 2.0000
v 40.1000 0.0100 8.0000
v 46.0000 0.0100 8.0000
v 46.0000 0.0100 2.0000
v 40.1000 0.0100 8.0000
v 40.1000 0.0100 14.0000
v 46.0000 0.0100 14.0000
v 46.0000 0.0100 8.0000
v 40.1000 0.0100 14.0000
v 40.1000 0.0100 20.0000
v 46.0000 0.0100 20.0000
v 46.0000 0.0100 14.0000
v 40.1000 0.0000 -40.0000
v 40.1000 0.0000 -34.0000
v 40.1000 1.2000 -34.0000
v 40.1000 1.2000 -40.0000
v 40.1000 0.0000 -34.0000
v 40.1000 0.0000 -28.0000
v 40.1000 1.2000 -28.0000
v 40.1000 1.2000 -34.0000
v 40.1000 0.0000 -28.0000
v 40.1000 0.0000 -22.0000
v 40.1000 1.2000 -22.0000
v 40.1000 1.2000 -28.0000
v 40.1000 0.0000 -22.0000
v 40.1000 0.0000 -16.0000
v 40.1000 1.2000 -16.0000
v 40.1000 1.2000 -22.0000
v 40.1000 0.0000 -16.0000
v 40.1000 0.0000 -10.0000
v 40.1000 1.2000 -10.0000
v 40.1000 1.2000 -16.0000
v 40.1000 0.0000 -10.0000
v 40.1000 0.0000 -4.0000
v 40.1000 1.2000 -4.0000
v 40.1000 1.2000 -10.0000
v 40.1000 0.0000 -4.0000
v 40.1000 0.0000 2.0000
v 40.1000 1.2000 2.0000
v 40.1000 1.2000 -4.0000
v 40.1000 0.0000 2.0000
v 40.1000 0.0000 8.0000
v 40.1000 1.2000 8.0000
v 40.1000 1.2000 2.0000
v 40.1000 0.0000 8.0000
v 40.1000 0.0000 14.0000
v 40.1000 1.2000 14.0000
v 40.1000 1.2000 8.0000
v 40.1000 0.0000 14.0000
v 40.1000 0.0000 20.0000
v 40.1000 1.2000 20.0000
v 40.1000 1.2000 14.0000
v 40.6000 0.0000 51.6000
v 41.4000 0.0000 51.6000
v 41.4000 0.0000 52.4000
v 40.6000 0.0000 52.4000
v 40.6000 0.8000 51.6000
v 41.4000 0.8000 51.6000
v 41.4000 0.8000 52.4000
v 40.6000 0.8000 52.4000
v 41.8000 0.0000 51.6000
v 42.6000 0.0000 51.6000
v 42.6000 0.0000 52.4000
v 41.8000 0.0000 52.4000
v 41.8000 0.8000 51.6000
v 42.6000 0.8000 51.6000
v 42.6000 0.8000 52.4000
v 41.8000 0.8000 52.4000
v 43.0000 0.0000 51.6000
v 43.8000 0.0000 51.6000
v 43.8000 0.0000 52.4000
v 43.0000 0.0000 52.4000
v 43.0000 0.8000 51.6000
v 43.8000 0.8000 51.6000
v 43.8000 0.8000 52.4000
v 43.0000 0.8000 52.4000
v 40.6000 0.9000 51.6000
v 41.4000 0.9000 51.6000
v 41.4000 0.9000 52.4000
v 40.6000 0.9000 52.4000
v 40.6000 1.7000 51.6000
v 41.4000 1.7000 51.6000
v 41.4000 1.7000 52.4000
v 40.6000 1.7000 52.4000
v 41.8000 0.9000 51.6000
v 42.6000 0.9000 51.6000
v 42.6000 0.9000 52.4000
v 41.8000 0.9000 52.4000
v 41.8000 1.7000 51.6000
v 42.6000 1.7000 51.6000
v 42.6000 1.7000 52.4000
v 41.8000 1.7000 52.4000
v 43.0000 0.9000 51.6000
v 43.8000 0.9000 51.6000
v 43.8000 0.9000 52.4000
v 43.0000 0.9000 52.4000
v 43.0000 1.7000 51.6000
v 43.8000 1.7000 51.6000
v 43.8000 1.7000 52.4000
v 43.0000 1.7000 52.4000
v 40.6000 0.0000 -52.4000
v 41.4000 0.0000 -52.4000
v 41.4000 0.0000 -51.6000
v 40.6000 0.0000 -51.6000
v 40.6000 0.8000 -52.4000
v 41.4000 0.8000 -52.4000
v 41.4000 0.8000 -51.6000
v 40.6000 0.8000 -51.6000
v 41.8000 0.0000 -52.4000
v 42.6000 0.0000 -52.4000
v 42.6000 0.0000 -51.6000
v 41.8000 0.0000 -51.6000
v 41.8000 0.8000 -52.4000
v 42.6000 0.8000 -52.4000
v 42.6000 0.8000 -51.6000
v 41.8000 0.8000 -51.6000
v 43.0000 0.0000 -52.4000
v 43.8000 0.0000 -52.4000
v 43.8000 0.0000 -51.6000
v 43.0000 0.0000 -51.6000
v 43.0000 0.8000 -52.4000
v 43.8000 0.8000 -52.4000
v 43.8000 0.8000 -51.6000
v 43.0000 0.8000 -51.6000
v 40.6000 0.9000 -52.4000
v 41.4000 0.9000 -52.4000
v 41.4000 0.9000 -51.6000
v 40.6000 0.9000 -51.6000
v 40.6000 1.7000 -52.4000
v 41.4000 1.7000 -52.4000
v 41.4000 1.7000 -51.6000
v 40.6000 1.7000 -51.6000
v 41.8000 0.9000 -52.4000
v 42.6000 0.9000 -52.4000
v 42.6000 0.9000 -51.6000
v 41.8000 0.9000 -51.6000
v 41.8000 1.7000 -52.4000
v 42.6000 1.7000 -52.4000
v 42.6000 1.7000 -51.6000
v 41.8000 1.7000 -51.6000
v 43.0000 0.9000 -52.4000
v 43.8000 0.9000 -52.4000
v 43.8000 0.9000 -51.6000
v 43.0000 0.9000 -51.6000
v 43.0000 1.7000 -52.4000
v 43.8000 1.7000 -52.4000
v 43.8000 1.7000 -51.6000
v 43.0000 1.7000 -51.6000
v -41.4000 0.0000 51.6000
v -40.6000 0.0000 51.6000
v -40.6000 0.0000 52.4000
v -41.4000 0.0000 52.4000
v -41.4000 0.8000 51.6000
v -40.6000 0.8000 51.6000
v -40.6000 0.8000 52.4000
v -41.4000 0.8000 52.4000
v -40.2000 0.0000 51.6000
v -39.4000 0.0000 51.6000
v -39.4000 0.0000 52.4000
v -40.2000 0.0000 52.4000
v -40.2000 0.8000 51.6000
v -39.4000 0.8000 51.6000
v -39.4000 0.8000 52.4000
v -40.2000 0.8000 52.4000
v -39.0000 0.0000 51.6000
v -38.2000 0.0000 51.6000
v -38.2000 0.0000 52.4000
v -39.0000 0.0000 52.4000
v -39.0000 0.8000 51.6000
v -38.2000 0.8000 51.6000
v -38.2000 0.8000 52.4000
v -39.0000 0.8000 52.4000
v -41.4000 0.9000 51.6000
v -40.6000 0.9000 51.6000
v -40.6000 0.9000 52.4000
v -41.4000 0.9000 52.4000
v -41.4000 1.7000 51.6000
v -40.6000 1.7000 51.6000
v -40.6000 1.7000 52.4000
v -41.4000 1.7000 52.4000
v -40.2000 0.9000 51.6000
v -39.4000 0.9000 51.6000
v -39.4000 0.9000 52.4000
v -40.2000 0.9000 52.4000
v -40.2000 1.7000 51.6000
v -39.4000 1.7000 51.6000
v -39.4000 1.7000 52.4000
v -40.2000 1.7000 52.4000
v -39.0000 0.9000 51.6000
v -38.2000 0.9000 51.6000
v -38.2000 0.9000 52.4000
v -39.0000 0.9000 52.4000
v -39.0000 1.7000 51.6000
v -38.2000 1.7000 51.6000
v -38.2000 1.7000 52.4000
v -39.0000 1.7000 52.4000
v -41.4000 0.0000 -52.4000
v -40.6000 0.0000 -52.4000
v -40.6000 0.0000 -51.6000
v -41.4000 0.0000 -51.6000
v -41.4000 0.8000 -52.4000
v -40.6000 0.8000 -52.4000
v -40.6000 0.8000 -51.6000
v -41.4000 0.8000 -51.6000
v -40.2000 0.0000 -52.4000
v -39.4000 0.0000 -52.4000
v -39.4000 0.0000 -51.6000
v -40.2000 0.0000 -51.6000
v -40.2000 0.8000 -52.4000
v -39.4000 0.8000 -52.4000
v -39.4000 0.8000 -51.6000
v -40.2000 0.8000 -51.6000
v -39.0000 0.0000 -52.4000
v -38.2000 0.0000 -52.4000
v -38.2000 0.0000 -51.6000
v -39.0000 0.0000 -51.6000
v -39.0000 0.8000 -52.4000
v -38.2000 0.8000 -52.4000
v -38.2000 0.8000 -51.6000
v -39.0000 0.8000 -51.6000
v -41.4000 0.9000 -52.4000
v -40.6000 0.9000 -52.4000
v -40.6000 0.9000 -51.6000
v -41.4000 0.9000 -51.6000
v -41.4000 1.7000 -52.4000
v -40.6000 1.7000 -52.4000
v -40.6000 1.7000 -51.6000
v -41.4000 1.7000 -51.6000
v -40.2000 0.9000 -52.4000
v -39.4000 0.9000 -52.4000
v -39.4000 0.9000 -51.6000
v -40.2000 0.9000 -51.6000
v -40.2000 1.7000 -52.4000
v -39.4000 1.7000 -52.4000
v -39.4000 1.7000 -51.6000
v -40.2000 1.7000 -51.6000
v -39.0000 0.9000 -52.4000
v -38.2000 0.9000 -52.4000
v -38.2000 0.9000 -51.6000
v -39.0000 0.9000 -51.6000
v -39.0000 1.7000 -52.4000
v -38.2000 1.7000 -52.4000
v -38.2000 1.7000 -51.6000
v -39.0000 1.7000 -51.6000


usemtl road
f 1 2 86 85
f 2 3 87 86
f 3 4 88 87
f 4 5 89 88
f 5 6 90 89
f 6 7 91 90
f 7 8 92 91
f 8 9 93 92
f 9 10 94 93
f 10 11 95 94
f 11 12 96 95
f 12 13 97 96
f 13 14 98 97
f 14 15 99 98
f 15 16 100 99
f 16 17 101 100
f 17 18 102 101
f 18 19 103 102
f 19 20 104 103
f 20 21 105 104
f 21 22 106 105
f 22 23 107 106
f 23 24 108 107
f 24 25 109 108
f 25 26 110 109
f 26 27 111 110
f 27 28 112 111
f 28 29 113 112
f 29 30 114 113
f 30 31 115 114
f 31 32 116 115
f 32 33 117 116
f 33 34 118 117
f 34 35 119 118
f 35 36 120 119
f 36 37 121 120
f 37 38 122 121
f 38 39 123 122
f 39 40 124 123
f 40 41 125 124
f 41 42 126 125
f 42 43 127 126
f 43 44 128 127
f 44 45 129 128
f 45 46 130 129
f 46 47 131 130
f 47 48 132 131
f 48 49 133 132
f 49 50 134 133
f 50 51 135 134
f 51 52 136 135
f 52 53 137 136
f 53 54 138 137
f 54 55 139 138
f 55 56 140 139
f 56 57 141 140
f 57 58 142 141
f 58 59 143 142
f 59 60 144 143
f 60 61 145 144
f 61 62 146 145
f 62 63 147 146
f 63 64 148 147
f 64 65 149 148
f 65 66 150 149
f 66 67 151 150
f 67 68 152 151
f 68 69 153 152
f 69 70 154 153
f 70 71 155 154
f 71 72 156 155
f 72 73 157 156
f 73 74 158 157
f 74 75 159 158
f 75 76 160 159
f 76 77 161 160
f 77 78 162 161
f 78 79 163 162
f 79 80 164 163
f 80 81 165 164
f 81 82 166 165
f 82 83 167 166
f 83 84 168 167
f 84 1 85 168

usemtl curb_red
f 1 2 170 169
f 2 3 171 170
f 3 4 172 171
f 88 256 257 89
f 89 257 258 90
f 90 258 259 91
f 7 8 176 175
f 8 9 177 176
f 9 10 178 177
f 94 262 263 95
f 95 263 264 96
f 96 264 265 97
f 13 14 182 181
f 14 15 183 182
f 15 16 184 183
f 100 268 269 101
f 101 269 270 102
f 102 270 271 103
f 19 20 188 187
f 20 21 189 188
f 21 22 190 189
f 106 274 275 107
f 107 275 276 108
f 108 276 277 109
f 25 26 194 193
f 26 27 195 194
f 27 28 196 195
f 112 280 281 113
f 113 281 282 114
f 114 282 283 115
f 31 32 200 199
f 32 33 201 200
f 33 34 202 201
f 118 286 287 119
f 119 287 288 120
f 120 288 289 121
f 37 38 206 205
f 38 39 207 206
f 39 40 208 207
f 124 292 293 125
f 125 293 294 126
f 126 294 295 127
f 43 44 212 211
f 44 45 213 212
f 45 46 214 213
f 130 298 299 131
f 131 299 300 132
f 132 300 301 133
f 49 50 218 217
f 50 51 219 218
f 51 52 220 219
f 136 304 305 137
f 137 305 306 138
f 138 306 307 139
f 55 56 224 223
f 56 57 225 224
f 57 58 226 225
f 142 310 311 143
f 143 311 312 144
f 144 312 313 145
f 61 62 230 229
f 62 63 231 230
f 63 64 232 231
f 148 316 317 149
f 149 317 318 150
f 150 318 319 151
f 67 68 236 235
f 68 69 237 236
f 69 70 238 237
f 154 322 323 155
f 155 323 324 156
f 156 324 325 157
f 73 74 242 241
f 74 75 243 242
f 75 76 244 243
f 160 328 329 161
f 161 329 330 162
f 162 330 331 163
f 79 80 248 247
f 80 81 249 248
f 81 82 250 249
f 166 334 335 167
f 167 335 336 168

usemtl curb_white
f 85 253 254 86
f 86 254 255 87
f 87 255 256 88
f 4 5 173 172
f 5 6 174 173
f 6 7 175 174
f 91 259 260 92
f 92 260 261 93
f 93 261 262 94
f 10 11 179 178
f 11 12 180 179
f 12 13 181 180
f 97 265 266 98
f 98 266 267 99
f 99 267 268 100
f 16 17 185 184
f 17 18 186 185
f 18 19 187 186
f 103 271 272 104
f 104 272 273 105
f 105 273 274 106
f 22 23 191 190
f 23 24 192 191
f 24 25 193 192
f 109 277 278 110
f 110 278 279 111
f 111 279 280 112
f 28 29 197 196
f 29 30 198 197
f 30 31 199 198
f 115 283 284 116
f 116 284 285 117
f 117 285 286 118
f 34 35 203 202
f 35 36 204 203
f 36 37 205 204
f 121 289 290 122
f 122 290 291 123
f 123 291 292 124
f 40 41 209 208
f 41 42 210 209
f 42 43 211 210
f 127 295 296 128
f 128 296 297 129
f 129 297 298 130
f 46 47 215 214
f 47 48 216 215
f 48 49 217 216
f 133 301 302 134
f 134 302 303 135
f 135 303 304 136
f 52 53 221 220
f 53 54 222 221
f 54 55 223 222
f 139 307 308 140
f 140 308 309 141
f 141 309 310 142
f 58 59 227 226
f 59 60 228 227
f 60 61 229 228
f 145 313 314 146
f 146 314 315 147
f 147 315 316 148
f 64 65 233 232
f 65 66 234 233
f 66 67 235 234
f 151 319 320 152
f 152 320 321 153
f 153 321 322 154
f 70 71 239 238
f 71 72 240 239
f 72 73 241 240
f 157 325 326 158
f 158 326 327 159
f 159 327 328 160
f 76 77 245 244
f 77 78 246 245
f 78 79 247 246
f 163 331 332 164
f 164 332 333 165
f 165 333 334 166
f 82 83 251 250
f 83 84 252 251

usemtl wall
f 169 170 338 337
f 253 421 422 254
f 170 171 339 338
f 254 422 423 255
f 171 172 340 339
f 255 423 424 256
f 172 173 341 340
f 256 424 425 257
f 173 174 342 341
f 257 425 426 258
f 174 175 343 342
f 258 426 427 259
f 175 176 344 343
f 259 427 428 260
f 176 177 345 344
f 260 428 429 261
f 177 178 346 345
f 261 429 430 262
f 178 179 347 346
f 262 430 431 263
f 179 180 348 347
f 263 431 432 264
f 180 181 349 348
f 264 432 433 265
f 181 182 350 349
f 265 433 434 266
f 182 183 351 350
f 266 434 435 267
f 183 184 352 351
f 267 435 436 268
f 184 185 353 352
f 268 436 437 269
f 185 186 354 353
f 269 437 438 270
f 186 187 355 354
f 270 438 439 271
f 187 188 356 355
f 271 439 440 272
f 188 189 357 356
f 272 440 441 273
f 189 190 358 357
f 273 441 442 274
f 190 191 359 358
f 274 442 443 275
f 191 192 360 359
f 275 443 444 276
f 192 193 361 360
f 276 444 445 277
f 193 194 362 361
f 277 445 446 278
f 194 195 363 362
f 278 446 447 279
f 195 196 364 363
f 279 447 448 280
f 196 197 365 364
f 280 448 449 281
f 197 198 366 365
f 281 449 450 282
f 198 199 367 366
f 282 450 451 283
f 199 200 368 367
f 283 451 452 284
f 200 201 369 368
f 284 452 453 285
f 201 202 370 369
f 285 453 454 286
f 202 203 371 370
f 286 454 455 287
f 203 204 372 371
f 287 455 456 288
f 204 205 373 372
f 288 456 457 289
f 205 206 374 373
f 289 457 458 290
f 206 207 375 374
f 290 458 459 291
f 207 208 376 375
f 291 459 460 292
f 208 209 377 376
f 292 460 461 293
f 209 210 378 377
f 293 461 462 294
f 210 211 379 378
f 294 462 463 295
f 211 212 380 379
f 295 463 464 296
f 212 213 381 380
f 296 464 465 297
f 213 214 382 381
f 297 465 466 298
f 214 215 383 382
f 298 466 467 299
f 215 216 384 383
f 299 467 468 300
f 216 217 385 384
f 300 468 469 301
f 217 218 386 385
f 301 469 470 302
f 218 219 387 386
f 302 470 471 303
f 219 220 388 387
f 303 471 472 304
f 220 221 389 388
f 304 472 473 305
f 221 222 390 389
f 305 473 474 306
f 222 223 391 390
f 306 474 475 307
f 223 224 392 391
f 307 475 476 308
f 224 225 393 392
f 308 476 477 309
f 225 226 394 393
f 309 477 478 310
f 226 227 395 394
f 310 478 479 311
f 227 228 396 395
f 311 479 480 312
f 228 229 397 396
f 312 480 481 313
f 229 230 398 397
f 313 481 482 314
f 230 231 399 398
f 314 482 483 315
f 231 232 400 399
f 315 483 484 316
f 232 233 401 400
f 316 484 485 317
f 233 234 402 401
f 317 485 486 318
f 234 235 403 402
f 318 486 487 319
f 235 236 404 403
f 319 487 488 320
f 236 237 405 404
f 320 488 489 321
f 237 238 406 405
f 321 489 490 322
f 238 239 407 406
f 322 490 491 323
f 239 240 408 407
f 323 491 492 324
f 240 241 409 408
f 324 492 493 325
f 241 242 410 409
f 325 493 494 326
f 242 243 411 410
f 326 494 495 327
f 243 244 412 411
f 327 495 496 328
f 244 245 413 412
f 328 496 497 329
f 245 246 414 413
f 329 497 498 330
f 246 247 415 414
f 330 498 499 331
f 247 248 416 415
f 331 499 500 332
f 248 249 417 416
f 332 500 501 333
f 249 250 418 417
f 333 501 502 334
f 250 251 419 418
f 334 502 503 335
f 251 252 420 419
f 335 503 504 336
f 252 169 337 420
f 336 504 421 253

usemtl line_white
f 505 506 507 508
f 509 510 511 512
f 513 514 515 516
f 517 518 519 520
f 521 522 523 524
f 525 526 527 528
f 529 530 531 532
f 533 534 535 536
f 537 538 539 540
f 541 542 543 544
f 545 546 547 548
f 549 550 551 552
f 553 554 555 556
f 557 558 559 560
f 561 562 563 564
f 565 566 567 568
f 569 570 571 572

usemtl start_line
f 573 574 575 576

usemtl grass
f 577 578 579
f 577 579 580
f 577 580 581
f 577 581 582
f 577 582 583
f 577 583 584
f 577 584 585
f 577 585 586
f 577 586 587
f 577 587 588
f 577 588 589
f 577 589 590
f 577 590 591
f 577 591 592
f 577 592 593
f 577 593 594
f 577 594 595
f 577 595 596
f 577 596 597
f 577 597 598
f 577 598 599
f 577 599 600
f 577 600 601
f 577 601 602
f 577 602 603
f 577 603 604
f 577 604 605
f 577 605 606
f 577 606 607
f 577 607 608
f 577 608 609
f 577 609 610
f 577 610 611
f 577 611 612
f 577 612 613
f 577 613 614
f 577 614 615
f 577 615 616
f 577 616 617
f 577 617 578

usemtl terrain
f 618 619 620 621

usemtl stand_seat
f 622 623 624 625
f 626 629 628 627
f 638 639 640 641
f 642 645 644 643

usemtl stand_concrete
f 622 626 627 623
f 630 634 635 631
f 638 642 643 639
f 646 650 651 647

usemtl stand_alt
f 630 631 632 633
f 634 637 636 635
f 646 647 648 649
f 650 653 652 651

usemtl pitlane
f 654 655 656 657
f 658 659 660 661
f 662 663 664 665
f 666 667 668 669
f 670 671 672 673
f 674 675 676 677
f 678 679 680 681
f 682 683 684 685
f 686 687 688 689
f 690 691 692 693

usemtl wall_pit
f 694 695 696 697
f 698 699 700 701
f 702 703 704 705
f 706 707 708 709
f 710 711 712 713
f 714 715 716 717
f 718 719 720 721
f 722 723 724 725
f 726 727 728 729
f 730 731 732 733

usemtl tire_yellow
f 734 735 736 737
f 738 741 740 739
f 734 738 739 735
f 735 739 740 736
f 736 740 741 737
f 737 741 738 734
f 750 751 752 753
f 754 757 756 755
f 750 754 755 751
f 751 755 756 752
f 752 756 757 753
f 753 757 754 750
f 766 767 768 769
f 770 773 772 771
f 766 770 771 767
f 767 771 772 768
f 768 772 773 769
f 769 773 770 766
f 782 783 784 785
f 786 789 788 787
f 782 786 787 783
f 783 787 788 784
f 784 788 789 785
f 785 789 786 782
f 798 799 800 801
f 802 805 804 803
f 798 802 803 799
f 799 803 804 800
f 800 804 805 801
f 801 805 802 798
f 814 815 816 817
f 818 821 820 819
f 814 818 819 815
f 815 819 820 816
f 816 820 821 817
f 817 821 818 814
f 830 831 832 833
f 834 837 836 835
f 830 834 835 831
f 831 835 836 832
f 832 836 837 833
f 833 837 834 830
f 846 847 848 849
f 850 853 852 851
f 846 850 851 847
f 847 851 852 848
f 848 852 853 849
f 849 853 850 846
f 862 863 864 865
f 866 869 868 867
f 862 866 867 863
f 863 867 868 864
f 864 868 869 865
f 865 869 866 862
f 878 879 880 881
f 882 885 884 883
f 878 882 883 879
f 879 883 884 880
f 880 884 885 881
f 881 885 882 878
f 894 895 896 897
f 898 901 900 899
f 894 898 899 895
f 895 899 900 896
f 896 900 901 897
f 897 901 898 894
f 910 911 912 913
f 914 917 916 915
f 910 914 915 911
f 911 915 916 912
f 912 916 917 913
f 913 917 914 910

usemtl tire_black
f 742 743 744 745
f 746 749 748 747
f 742 746 747 743
f 743 747 748 744
f 744 748 749 745
f 745 749 746 742
f 758 759 760 761
f 762 765 764 763
f 758 762 763 759
f 759 763 764 760
f 760 764 765 761
f 761 765 762 758
f 774 775 776 777
f 778 781 780 779
f 774 778 779 775
f 775 779 780 776
f 776 780 781 777
f 777 781 778 774
f 790 791 792 793
f 794 797 796 795
f 790 794 795 791
f 791 795 796 792
f 792 796 797 793
f 793 797 794 790
f 806 807 808 809
f 810 813 812 811
f 806 810 811 807
f 807 811 812 808
f 808 812 813 809
f 809 813 810 806
f 822 823 824 825
f 826 829 828 827
f 822 826 827 823
f 823 827 828 824
f 824 828 829 825
f 825 829 826 822
f 838 839 840 841
f 842 845 844 843
f 838 842 843 839
f 839 843 844 840
f 840 844 845 841
f 841 845 842 838
f 854 855 856 857
f 858 861 860 859
f 854 858 859 855
f 855 859 860 856
f 856 860 861 857
f 857 861 858 854
f 870 871 872 873
f 874 877 876 875
f 870 874 875 871
f 871 875 876 872
f 872 876 877 873
f 873 877 874 870
f 886 887 888 889
f 890 893 892 891
f 886 890 891 887
f 887 891 892 888
f 888 892 893 889
f 889 893 890 886
f 902 903 904 905
f 906 909 908 907
f 902 906 907 903
f 903 907 908 904
f 904 908 909 905
f 905 909 906 902
f 918 919 920 921
f 922 925 924 923
f 918 922 923 919
f 919 923 924 920
f 920 924 925 921
f 921 925 922 918
